<?xml version="1.0" encoding="UTF-8"?><svg id="_Слой_2" xmlns="http://www.w3.org/2000/svg" width="170" height="40" viewBox="0 0 170 40"><defs><style>.cls-1{fill:#3d271b;}</style></defs><g id="_Слой_1-2"><polygon class="cls-1" points="138.07 25.81 138.07 25.31 141.64 24.68 151.54 7.82 155.88 7.82 166.56 24.68 170 25.32 170 25.81 158.94 25.81 158.94 25.31 162.46 24.68 152.85 9.58 143.9 24.68 147.24 25.31 147.24 25.81 138.07 25.81"/><path class="cls-1" d="M18.97,12.68h-.5s-.45-.83-1.15-1.48c-1.82-1.69-5.97-3.2-9-2.71s-5.05,2.58-1.62,4.67c2.82,1.72,11.49,3.93,12.78,6.44.65,1.27.31,2.96-.72,3.91-1.7,1.56-4.99,2.28-8.28,2.29-3.11,0-6.58-.44-8.63-1.14l-1.85-4.78h.49s1.16,1.56,1.4,1.85c2.52,2.85,6.77,3.29,10.35,2.96,1.46-.13,5.18-1.1,4.02-3.43-.75-1.5-8.46-4.11-10.47-4.94-2.36-.97-6.81-3.09-3.98-6.24,2.14-2.38,5.52-2.74,8.59-2.74,2.45,0,6.32,1.26,7.31,2.01l1.25,3.33Z"/><polygon class="cls-1" points="47.61 7.82 47.61 12.43 47.12 12.43 45.77 8.77 32.75 8.77 32.75 16.17 41.21 16.17 42.14 14.13 42.39 14.13 42.39 18.85 42.12 18.85 41.21 16.97 32.75 16.97 32.75 24.68 46.03 24.68 48.71 20.84 49.19 20.84 47.69 25.81 25.22 25.81 25.22 25.32 29.1 24.66 29.1 8.83 25.25 8.31 25.25 7.82 47.61 7.82"/><polygon class="cls-1" points="43.29 4.28 37.05 1.86 31.12 4.28 31.12 4 37.05 0 43.29 3.97 43.29 4.28"/><polygon class="cls-1" points="116.08 7.85 105.49 7.85 105.49 7.85 102.06 7.85 102.06 7.85 91.25 7.85 90.73 12.14 91.21 12.14 93.7 8.81 101.85 8.81 101.85 24.76 98.37 25.36 98.37 25.81 108.96 25.81 108.96 25.36 105.48 24.76 105.5 8.81 113.63 8.81 116.12 12.14 116.61 12.14 116.08 7.85"/><polygon class="cls-1" points="76.94 7.17 76.94 7.67 80.7 8.14 80.7 20.51 62.44 7.17 54.5 7.17 54.5 7.67 58.25 8.14 58.23 24.02 54.46 24.68 54.46 25.16 64.1 25.16 64.1 24.68 60.15 24.04 60.15 9.74 82.59 25.81 82.59 8.14 86.5 7.67 86.5 7.17 76.94 7.17"/><polygon class="cls-1" points="129.7 8.99 133.17 8.32 133.17 7.84 122.58 7.84 122.58 8.32 126.04 8.96 126.04 24.66 122.58 25.33 122.58 25.81 133.17 25.81 133.17 25.32 129.7 24.69 129.7 8.99"/><polygon class="cls-1" points="92.86 36.47 92.86 40 92.24 40 92.24 37.25 90.24 39.44 89.96 39.44 87.95 37.25 87.95 40 87.33 40 87.33 36.47 87.95 36.47 90.1 38.83 92.24 36.47 92.86 36.47"/><polygon class="cls-1" points="101.32 36.47 101.32 36.95 98.24 36.95 98.24 38 100.93 38 100.93 38.42 98.24 38.42 98.24 39.52 101.32 39.52 101.32 40 97.6 40 97.6 36.47 101.32 36.47"/><polygon class="cls-1" points="68.68 36.47 69.31 36.47 69.31 38 72.48 38 72.48 36.47 73.11 36.47 73.11 40 72.48 40 72.48 38.42 69.31 38.42 69.31 40 68.68 40 68.68 36.47"/><path class="cls-1" d="M80.22,36.24c-1.58,0-2.85.84-2.85,1.88s1.28,1.88,2.85,1.88,2.85-.84,2.85-1.88-1.28-1.88-2.85-1.88ZM80.22,39.48c-1.33,0-2.35-.77-2.35-1.36s1.02-1.35,2.35-1.35,2.37.77,2.37,1.36-1.05,1.36-2.37,1.36Z"/></g></svg>